# xmcd
#
# Track frame offsets: 
#        182
#        13115
#        26607
#        37580
#        50030
#        69540
#        83475
#        97992
#        113670
#        119737
#        128050
#        147725
#
# Disc length: 2161 seconds
#
# Revision: 4
# Processed by: cddbd v1.5.2PL0 Copyright (c) Steve Scherf et al.
# Submitted via: ExactAudioCopyFreeDBPlugin 1.0
#
DISCID=9e086f0c
DTITLE=T. Bone Walker - Stormy Monday Blues
DYEAR=1994
DGENRE=Blues
TTITLE0=Stormy Monday
TTITLE1=All Night Long
TTITLE2=My Patience Keeps Running Out
TTITLE3=Glamour Girl
TTITLE4=T. Bone's Way
TTITLE5=That Evening Train
TTITLE6=Louisiana Bayou Drive
TTITLE7=When We Were Schoolmates
TTITLE8=Don't Go Back To New Orleans
TTITLE9=Got To Cross The Deep Blue Sea (You'll Never Find Anyone)
TTITLE10=To Be A Slave Like Me
TTITLE11=Left Home When I Was A Kid
EXTD=
EXTT0=
EXTT1=
EXTT2=
EXTT3=
EXTT4=
EXTT5=
EXTT6=
EXTT7=
EXTT8=
EXTT9=
EXTT10=
EXTT11=
PLAYORDER=
